<?xml version="1.0" standalone="no"?>
<!DOCTYPE svg PUBLIC "-//W3C//DTD SVG 20010904//EN"
 "http://www.w3.org/TR/2001/REC-SVG-20010904/DTD/svg10.dtd">
<svg version="1.0" xmlns="http://www.w3.org/2000/svg"
 width="286.000000pt" height="286.000000pt" viewBox="0 0 286.000000 286.000000"
 preserveAspectRatio="xMidYMid meet">
<metadata>
Created by potrace 1.14, written by Peter Selinger 2001-2017
</metadata>
<g transform="translate(0.000000,286.000000) scale(0.100000,-0.100000)"
fill="#000000" stroke="none">
<path d="M2776 2803 c3 -32 10 -76 15 -98 4 -22 7 -41 5 -42 -2 -2 -54 12
-117 31 -333 100 -590 139 -914 139 -217 0 -384 -17 -587 -57 -409 -83 -658
-203 -867 -421 -182 -189 -271 -397 -271 -630 0 -221 86 -429 254 -612 51 -56
66 -65 159 -101 56 -22 113 -42 127 -44 22 -3 25 -7 23 -43 -10 -198 -9 -213
40 -361 39 -116 56 -153 96 -205 115 -151 260 -253 436 -309 53 -16 103 -23
205 -26 l135 -5 -81 39 c-173 84 -278 179 -338 305 -42 89 -56 154 -56 260 0
148 41 265 147 425 58 87 58 87 60 52 15 -198 46 -326 110 -453 42 -85 101
-145 178 -182 53 -26 69 -29 163 -30 70 0 106 4 109 11 2 7 -7 14 -20 18 -36
9 -148 133 -179 198 -40 82 -52 148 -45 258 18 308 223 558 542 662 61 20 91
23 230 23 136 0 172 -4 238 -23 84 -24 176 -64 245 -107 l42 -26 0 705 0 706
-45 0 -45 0 6 -57z m-1759 -851 c88 -46 132 -119 133 -222 1 -257 -355 -330
-461 -96 -37 81 -20 192 38 257 78 86 193 110 290 61z"/>
<path d="M846 1839 c-86 -68 -64 -195 41 -230 97 -32 197 87 149 178 -25 50
-62 73 -116 73 -33 0 -55 -6 -74 -21z"/>
</g>
</svg>
